<svg xmlns="http://www.w3.org/2000/svg" version="1.1" xmlns:xlink="http://www.w3.org/1999/xlink" xmlns:svgjs="http://svgjs.dev/svgjs" width="1500" height="1500" viewBox="0 0 1500 1500"><rect width="1500" height="1500" fill="#cd1a2f"></rect><g transform="matrix(0.6666666666666666,0,0,0.6666666666666666,251.1013960025407,181.46072874493922)"><svg viewBox="0 0 217 247" data-background-color="#cd1a2f" preserveAspectRatio="xMidYMid meet" height="1707" width="1500" xmlns="http://www.w3.org/2000/svg" xmlns:xlink="http://www.w3.org/1999/xlink"><g id="tight-bounds" transform="matrix(1,0,0,1,-0.23900293255132965,-0.09999999999999432)"><svg viewBox="0 0 217.47800586510263 247.2" height="247.2" width="217.47800586510263"><g><svg viewBox="0 0 217.47800586510263 247.2" height="247.2" width="217.47800586510263"><g><svg viewBox="0 0 217.47800586510263 247.2" height="247.2" width="217.47800586510263"><g id="textblocktransform"><svg viewBox="0 0 217.47800586510263 247.2" height="247.2" width="217.47800586510263" id="textblock"><g><svg viewBox="0 0 217.47800586510263 247.2" height="247.2" width="217.47800586510263"><g transform="matrix(1,0,0,1,0,0)"><svg width="217.47800586510263" viewBox="0.7 -33.05 30 34.099999999999994" height="247.2" data-palette-color="#bfc5b7"><path d="M28.45-8.7Q27.7-6.45 25.48-4.17 23.25-1.9 19.88-0.43 16.5 1.05 12.5 1.05L12.5 1.05Q6.4 1.05 3.55-1.93 0.7-4.9 0.7-9.55L0.7-9.55Q0.7-16.15 3.65-21.53 6.6-26.9 11.6-29.98 16.6-33.05 22.4-33.05L22.4-33.05Q24.7-33.05 26.6-32 28.5-30.95 29.6-28.98 30.7-27 30.7-24.35L30.7-24.35Q30.7-22.85 29.58-21.8 28.45-20.75 26.55-20.75L26.55-20.75Q25.05-20.75 24.53-21.55 24-22.35 24-23.6L24-23.6 24.05-25.2Q24.05-26.1 23.05-26.95 22.05-27.8 21.2-27.8L21.2-27.8Q18.4-27.8 15.05-25.28 11.7-22.75 9.4-18.48 7.1-14.2 7.1-9.2L7.1-9.2Q7.1-6.9 8.9-5.45 10.7-4 13.45-4L13.45-4Q14.35-4 15.8-4.6 17.25-5.2 18.48-6.1 19.7-7 20.1-7.85L20.1-7.85Q20.7-9.1 21.8-10.65 22.9-12.2 24-12.2L24-12.2Q26.55-12.2 27.48-11.1 28.4-10 28.45-8.7L28.45-8.7Z" opacity="1" transform="matrix(1,0,0,1,0,0)" fill="#bfc5b7" class="wordmark-text-0" data-fill-palette-color="primary" id="text-0"></path></svg></g></svg></g></svg></g></svg></g><g></g></svg></g><defs></defs></svg><rect width="217.47800586510263" height="247.2" fill="none" stroke="none" visibility="hidden"></rect></g></svg></g></svg>